<svg width="75" height="75" viewBox="0 0 75 75" fill="none" xmlns="http://www.w3.org/2000/svg">
<path fill-rule="evenodd" clip-rule="evenodd" d="M0 38.125C0 35.0184 2.51154 32.5 5.60968 32.5H20.5688C22.29 32.5 23.6853 33.8991 23.6853 35.625V71.875C23.6853 73.6009 22.29 75 20.5688 75H5.60968C2.51154 75 0 72.4816 0 69.375V38.125ZM6.23298 38.75V68.75H17.4523V38.75H6.23298Z" fill="#0966FF"/>
<path fill-rule="evenodd" clip-rule="evenodd" d="M33.0348 6.25C32.6906 6.25 32.4115 6.52982 32.4115 6.875V18.125C32.4115 18.6101 32.2988 19.0886 32.0825 19.5225L22.733 38.2725C21.9633 39.8162 20.0913 40.4419 18.5518 39.6701C17.0123 38.8982 16.3883 37.0211 17.1581 35.4775L26.1785 17.3873V6.875C26.1785 3.07804 29.2482 0 33.0348 0H35.528C42.0685 0 47.3706 5.31662 47.3706 11.875V25.625H61.9017C70.7139 25.625 77.0084 34.18 74.4082 42.6228L68.8355 60.717C66.3347 68.837 58.8487 74.375 50.3736 74.375H19.9455C18.2244 74.375 16.8291 72.9759 16.8291 71.25C16.8291 69.5241 18.2244 68.125 19.9455 68.125H50.3736C56.1148 68.125 61.1859 64.3734 62.88 58.8728L68.4527 40.7786C69.8147 36.3562 66.5176 31.875 61.9017 31.875H44.2541C42.533 31.875 41.1377 30.4759 41.1377 28.75V11.875C41.1377 8.7684 38.6261 6.25 35.528 6.25H33.0348Z" fill="#0966FF"/>
</svg>
