<svg width="75" height="75" viewBox="0 0 75 75" fill="none" xmlns="http://www.w3.org/2000/svg">
<path fill-rule="evenodd" clip-rule="evenodd" d="M0 18.4322C0 8.25238 8.25238 0 18.4322 0H56.5678C66.7476 0 75 8.25238 75 18.4322V56.5678C75 66.7476 66.7476 75 56.5678 75H18.4322C8.25238 75 0 66.7476 0 56.5678V18.4322ZM18.4322 6.35593C11.7627 6.35593 6.35593 11.7627 6.35593 18.4322V56.5678C6.35593 63.2373 11.7627 68.6441 18.4322 68.6441H56.5678C63.2373 68.6441 68.6441 63.2373 68.6441 56.5678V18.4322C68.6441 11.7627 63.2373 6.35593 56.5678 6.35593H18.4322Z" fill="#0966FF"/>
<path fill-rule="evenodd" clip-rule="evenodd" d="M54.6547 34.0108C54.4003 33.7883 54.0163 33.8037 53.7806 34.0459L35.2613 53.0796C33.0004 55.4033 29.2621 55.3855 27.0235 53.0403L18.2562 43.8554C18.0058 43.5931 17.587 43.5931 17.3367 43.8554L6.74777 54.9485C5.53588 56.2181 3.52425 56.2649 2.25466 55.053C0.985067 53.8412 0.938285 51.8295 2.15017 50.5599L12.7391 39.4668C15.4933 36.5814 20.0995 36.5814 22.8538 39.4668L31.1658 48.1746L49.2251 29.6136C51.8177 26.949 56.0422 26.7793 58.8401 29.2275L71.3722 40.1931C72.6931 41.3489 72.8269 43.3566 71.6711 44.6775C70.5154 45.9983 68.5076 46.1322 67.1868 44.9764L54.6547 34.0108Z" fill="#0966FF"/>
<path d="M26.0591 21.6102C26.0591 24.7694 23.498 27.3305 20.3387 27.3305C17.1795 27.3305 14.6184 24.7694 14.6184 21.6102C14.6184 18.4509 17.1795 15.8898 20.3387 15.8898C23.498 15.8898 26.0591 18.4509 26.0591 21.6102Z" fill="#0966FF"/>
</svg>
