<svg width="75" height="75" viewBox="0 0 75 75" fill="none" xmlns="http://www.w3.org/2000/svg">
<path fill-rule="evenodd" clip-rule="evenodd" d="M18.6428 32.5L26.1786 17.3873V6.875C26.1786 3.07804 29.2482 0 33.0348 0H35.528C42.0686 0 47.3707 5.31662 47.3707 11.875V25.625H61.9018C70.7139 25.625 77.0085 34.18 74.4082 42.6229L68.8355 60.7171C66.3347 68.837 58.8488 74.375 50.3736 74.375H22.439C21.9181 74.7675 21.2705 75 20.5688 75L18.5993 75V32.5H12V75L5.60968 75C2.51154 75 0 72.4816 0 69.375V38.125C0 35.0184 2.51154 32.5 5.60968 32.5H18.6428Z" fill="#0966FF"/>
</svg>
