<svg width="75" height="75" viewBox="0 0 75 75" fill="none" xmlns="http://www.w3.org/2000/svg">
<path fill-rule="evenodd" clip-rule="evenodd" d="M74.5756 37.5C74.5756 16.7893 57.8812 0 37.2878 0C16.6943 0 2.92945e-06 16.7893 2.92945e-06 37.5C2.92945e-06 58.2107 16.6943 75 37.2878 75C44.6521 75 51.5251 72.8499 57.3105 69.14L69.2037 73.3263C72.6708 74.5467 75.9883 71.1631 74.7262 67.6937L70.1759 55.1855C72.9839 49.9143 74.5756 43.89 74.5756 37.5ZM37.2878 6.25C54.449 6.25 68.3609 20.2411 68.3609 37.5C68.3609 43.2806 66.8032 48.6858 64.0887 53.3245C63.6174 54.13 63.5293 55.1054 63.8486 55.9831L67.5352 66.1172L57.9003 62.7258C56.9561 62.3935 55.9106 62.5386 55.0912 63.1158C50.05 66.6668 43.9154 68.75 37.2878 68.75C20.1266 68.75 6.21463 54.7589 6.21463 37.5C6.21463 20.2411 20.1266 6.25 37.2878 6.25Z" fill="#0966FF"/>
</svg>
