<svg width="220" height="43" viewBox="0 0 220 43" fill="none" xmlns="http://www.w3.org/2000/svg">
<path d="M191.119 42.228H199.1V29.2909L210.235 42.228H220L207.036 27.3181L218.11 14.3899H209.225L199.1 26.3056V0L191.119 1.04808V42.228Z" fill="#0966FF"/>
<path fill-rule="evenodd" clip-rule="evenodd" d="M172.652 13.6924C163.79 13.6924 157.636 19.6572 157.636 28.3054C157.636 36.9536 163.79 42.9184 172.652 42.9184C181.514 42.9184 187.667 36.9536 187.667 28.3054C187.667 19.6572 181.514 13.6924 172.652 13.6924ZM172.652 36.109C168.546 36.109 165.733 32.933 165.733 28.3054C165.733 23.6778 168.546 20.5018 172.652 20.5018C176.757 20.5018 179.57 23.6778 179.57 28.3054C179.57 32.933 176.757 36.109 172.652 36.109Z" fill="#0966FF"/>
<path fill-rule="evenodd" clip-rule="evenodd" d="M140.146 13.6924C131.251 13.6924 125.073 19.6572 125.073 28.3054C125.073 36.9536 131.251 42.9184 140.146 42.9184C149.042 42.9184 155.22 36.9536 155.22 28.3054C155.22 19.6572 149.042 13.6924 140.146 13.6924ZM140.146 36.109C136.025 36.109 133.201 32.933 133.201 28.3054C133.201 23.6778 136.025 20.5018 140.146 20.5018C144.268 20.5018 147.092 23.6778 147.092 28.3054C147.092 32.933 144.268 36.109 140.146 36.109Z" fill="#0966FF"/>
<path fill-rule="evenodd" clip-rule="evenodd" d="M109.524 13.6724C105.83 13.6724 102.769 15.1249 100.851 17.7836V0L92.8557 1.03879V42.2053H99.9453L100.086 37.9091C101.977 41.1136 105.364 42.9184 109.524 42.9184C117.107 42.9184 122.657 36.7557 122.657 28.2954C122.657 19.8349 117.133 13.6724 109.524 13.6724ZM107.633 36.1043C103.525 36.1043 100.711 32.9262 100.711 28.2954C100.711 23.6646 103.525 20.4865 107.633 20.4865C111.741 20.4865 114.556 23.6646 114.556 28.2954C114.556 32.9262 111.741 36.1043 107.633 36.1043Z" fill="#0966FF"/>
<path fill-rule="evenodd" clip-rule="evenodd" d="M76.7737 36.4697C72.5239 36.4697 69.4731 34.4989 68.4327 31.1032H88.1568C88.351 30.0651 88.4832 28.8333 88.4832 28.0063C88.4832 19.0589 83.466 13.6924 75.0367 13.6924C66.5281 13.6924 60.6381 19.6572 60.6381 28.3054C60.6381 37.0679 66.8103 42.9184 75.9715 42.9184C80.715 42.9184 85.3265 41.3349 88.2098 38.7043L85.3265 33.637C82.5315 35.5635 79.7892 36.4697 76.7737 36.4697ZM74.9837 19.9035C78.6872 19.9035 81.0501 22.1469 81.0501 25.622L68.2651 25.6486C69.0323 21.9624 71.4216 19.9035 74.9837 19.9035Z" fill="#0966FF"/>
<path d="M59.2573 38.59C56.4025 41.3349 52.3491 42.9184 48.2074 42.9184C39.5188 42.9184 33.3769 36.8392 33.3682 28.3054C33.3682 19.7453 39.5101 13.6924 48.1985 13.6924C52.1463 13.6924 56.1292 15.1177 58.7023 17.4402L55.5212 22.807C53.5826 21.408 51.1945 20.6162 49.0005 20.6162C44.5593 20.6162 41.5985 23.7131 41.5985 28.3054C41.5985 32.8978 44.5593 35.9946 49.0005 35.9946C51.3886 35.9946 53.9085 35.0622 56.1292 33.3378L59.2573 38.59Z" fill="#0966FF"/>
<path fill-rule="evenodd" clip-rule="evenodd" d="M22.7116 14.3961L22.571 18.7248C20.6797 15.496 17.2932 13.6924 13.1328 13.6924C5.52402 13.6924 0 19.851 0 28.3054C0 36.7601 5.55924 42.9184 13.1328 42.9184C17.2932 42.9184 20.6884 41.1148 22.571 37.9125L22.7116 42.2057H29.8013V14.3961H22.7116ZM15.0238 36.1003C10.9161 36.1003 8.10126 32.9243 8.10126 28.2967C8.10126 23.6692 10.9161 20.4932 15.0238 20.4932C19.1317 20.4932 21.9463 23.6692 21.9463 28.2967C21.9463 32.9243 19.1228 36.1003 15.0238 36.1003Z" fill="#0966FF"/>
</svg>
